<?xml version="1.0" encoding="utf-8"?>
<svg viewBox="63.922000885009766 165.0780029296875 560.3909912109375 65.8280029296875" width="560.3909912109375" height="65.8280029296875" xmlns="http://www.w3.org/2000/svg">
  <path d="M 93.021 179.66 C 94.234 179.66 95.234 180.06 96.021 180.86 C 96.801 181.66 97.191 182.7 97.191 183.98 L 97.191 209.66 C 97.191 210.973 96.808 212.03 96.041 212.83 C 95.274 213.63 94.284 214.03 93.071 214.03 C 91.631 214.03 90.541 213.55 89.801 212.59 L 75.211 194.4 L 75.211 209.66 C 75.211 210.973 74.844 212.03 74.111 212.83 C 73.371 213.63 72.378 214.03 71.131 214.03 C 69.918 214.03 68.924 213.63 68.151 212.83 C 67.384 212.03 67.001 210.973 67.001 209.66 L 67.001 183.98 C 67.001 182.7 67.384 181.66 68.151 180.86 C 68.924 180.06 69.918 179.66 71.131 179.66 C 72.504 179.66 73.578 180.14 74.351 181.1 L 88.941 199.24 L 88.941 183.98 C 88.941 182.667 89.318 181.62 90.071 180.84 C 90.818 180.053 91.801 179.66 93.021 179.66 ZM 107.034 214.03 C 105.814 214.03 104.798 213.7 103.984 213.04 C 103.171 212.387 102.764 211.403 102.764 210.09 L 102.764 193.58 C 102.764 192.267 103.171 191.283 103.984 190.63 C 104.798 189.97 105.814 189.64 107.034 189.64 C 108.248 189.64 109.264 189.97 110.084 190.63 C 110.898 191.283 111.304 192.267 111.304 193.58 L 111.304 210.09 C 111.304 211.403 110.898 212.387 110.084 213.04 C 109.264 213.7 108.248 214.03 107.034 214.03 Z M 107.034 186.28 C 105.594 186.28 104.451 185.907 103.604 185.16 C 102.751 184.407 102.324 183.407 102.324 182.16 C 102.324 180.907 102.751 179.913 103.604 179.18 C 104.451 178.447 105.594 178.08 107.034 178.08 C 108.441 178.08 109.578 178.447 110.444 179.18 C 111.304 179.913 111.734 180.907 111.734 182.16 C 111.734 183.407 111.311 184.407 110.464 185.16 C 109.618 185.907 108.474 186.28 107.034 186.28 ZM 127.621 214.12 C 123.781 214.12 120.741 213.033 118.501 210.86 C 116.261 208.687 115.141 205.727 115.141 201.98 C 115.141 199.513 115.684 197.337 116.771 195.45 C 117.864 193.563 119.394 192.107 121.361 191.08 C 123.328 190.06 125.574 189.55 128.101 189.55 C 129.448 189.55 130.791 189.727 132.131 190.08 C 133.478 190.427 134.664 190.92 135.691 191.56 C 136.678 192.173 137.171 193.103 137.171 194.35 C 137.171 195.343 136.941 196.15 136.481 196.77 C 136.014 197.397 135.414 197.71 134.681 197.71 C 134.201 197.71 133.738 197.637 133.291 197.49 C 132.838 197.35 132.341 197.133 131.801 196.84 C 131.161 196.553 130.618 196.34 130.171 196.2 C 129.718 196.053 129.221 195.98 128.681 195.98 C 125.514 195.98 123.931 197.917 123.931 201.79 C 123.931 203.71 124.338 205.173 125.151 206.18 C 125.964 207.187 127.141 207.69 128.681 207.69 C 129.221 207.69 129.724 207.62 130.191 207.48 C 130.658 207.333 131.178 207.117 131.751 206.83 C 132.391 206.543 132.911 206.327 133.311 206.18 C 133.711 206.033 134.151 205.96 134.631 205.96 C 135.364 205.96 135.964 206.273 136.431 206.9 C 136.898 207.527 137.131 208.333 137.131 209.32 C 137.131 209.933 137.001 210.487 136.741 210.98 C 136.488 211.473 136.138 211.85 135.691 212.11 C 133.478 213.45 130.788 214.12 127.621 214.12 ZM 163.809 207.12 C 164.643 207.92 165.059 208.847 165.059 209.9 C 165.059 210.953 164.683 211.897 163.929 212.73 C 163.183 213.563 162.279 213.98 161.219 213.98 C 160.326 213.98 159.429 213.58 158.529 212.78 L 148.789 203.52 L 148.789 210 C 148.789 211.307 148.383 212.297 147.569 212.97 C 146.749 213.643 145.733 213.98 144.519 213.98 C 143.299 213.98 142.283 213.643 141.469 212.97 C 140.656 212.297 140.249 211.307 140.249 210 L 140.249 183.64 C 140.249 182.333 140.656 181.343 141.469 180.67 C 142.283 179.997 143.299 179.66 144.519 179.66 C 145.733 179.66 146.749 179.997 147.569 180.67 C 148.383 181.343 148.789 182.333 148.789 183.64 L 148.789 199.92 L 157.669 190.89 C 158.469 190.057 159.396 189.64 160.449 189.64 C 161.476 189.64 162.383 190.033 163.169 190.82 C 163.949 191.607 164.339 192.493 164.339 193.48 C 164.339 194.473 163.923 195.387 163.089 196.22 L 157.859 201.4 L 163.809 207.12 ZM 186.464 213.74 C 185.151 213.74 184.144 213.387 183.444 212.68 C 182.737 211.98 182.384 210.957 182.384 209.61 L 182.384 183.98 C 182.384 182.667 182.777 181.62 183.564 180.84 C 184.344 180.053 185.407 179.66 186.754 179.66 C 188.127 179.66 189.214 180.053 190.014 180.84 C 190.814 181.62 191.214 182.667 191.214 183.98 L 191.214 206.59 L 202.254 206.59 C 205.041 206.59 206.434 207.79 206.434 210.19 C 206.434 211.403 206.091 212.3 205.404 212.88 C 204.717 213.453 203.667 213.74 202.254 213.74 L 186.464 213.74 ZM 228.18 206.16 C 228.913 206.16 229.513 206.447 229.98 207.02 C 230.44 207.593 230.67 208.347 230.67 209.28 C 230.67 210.56 230.047 211.533 228.8 212.2 C 227.713 212.747 226.427 213.203 224.94 213.57 C 223.447 213.937 222.077 214.12 220.83 214.12 C 218.21 214.12 215.923 213.627 213.97 212.64 C 212.017 211.647 210.513 210.22 209.46 208.36 C 208.4 206.507 207.87 204.333 207.87 201.84 C 207.87 199.467 208.373 197.347 209.38 195.48 C 210.393 193.607 211.803 192.15 213.61 191.11 C 215.417 190.07 217.457 189.55 219.73 189.55 C 221.937 189.55 223.873 190.03 225.54 190.99 C 227.2 191.95 228.487 193.31 229.4 195.07 C 230.313 196.83 230.77 198.893 230.77 201.26 C 230.77 201.993 230.6 202.56 230.26 202.96 C 229.927 203.36 229.44 203.56 228.8 203.56 L 216.13 203.56 C 216.35 205.1 216.847 206.207 217.62 206.88 C 218.387 207.547 219.52 207.88 221.02 207.88 C 221.82 207.88 222.557 207.793 223.23 207.62 C 223.903 207.447 224.657 207.2 225.49 206.88 C 225.97 206.687 226.44 206.517 226.9 206.37 C 227.367 206.23 227.793 206.16 228.18 206.16 Z M 219.97 195.31 C 218.85 195.31 217.953 195.67 217.28 196.39 C 216.607 197.11 216.207 198.157 216.08 199.53 L 223.62 199.53 C 223.427 196.717 222.21 195.31 219.97 195.31 ZM 265.66 192.04 C 265.98 191.24 266.437 190.64 267.03 190.24 C 267.623 189.84 268.27 189.64 268.97 189.64 C 270.03 189.64 270.977 190 271.81 190.72 C 272.637 191.44 273.05 192.313 273.05 193.34 C 273.05 193.82 272.923 194.347 272.67 194.92 L 264.89 211.58 C 264.543 212.38 264.01 212.997 263.29 213.43 C 262.57 213.863 261.777 214.08 260.91 214.08 C 260.043 214.08 259.26 213.863 258.56 213.43 C 257.853 212.997 257.323 212.38 256.97 211.58 L 252.41 201.45 L 248.14 211.58 C 247.82 212.38 247.3 212.997 246.58 213.43 C 245.86 213.863 245.07 214.08 244.21 214.08 C 243.343 214.08 242.55 213.863 241.83 213.43 C 241.11 212.997 240.557 212.38 240.17 211.58 L 232.45 194.92 C 232.223 194.44 232.11 193.93 232.11 193.39 C 232.11 192.33 232.55 191.44 233.43 190.72 C 234.31 190 235.293 189.64 236.38 189.64 C 237.147 189.64 237.843 189.84 238.47 190.24 C 239.097 190.64 239.57 191.257 239.89 192.09 L 244.45 203.18 L 249.1 192.14 C 249.42 191.34 249.917 190.733 250.59 190.32 C 251.263 189.9 251.983 189.69 252.75 189.69 C 253.517 189.69 254.237 189.9 254.91 190.32 C 255.583 190.733 256.08 191.34 256.4 192.14 L 261.2 203.23 L 265.66 192.04 ZM 280.253 214.03 C 279.033 214.03 278.016 213.7 277.203 213.04 C 276.39 212.387 275.983 211.403 275.983 210.09 L 275.983 193.58 C 275.983 192.267 276.39 191.283 277.203 190.63 C 278.016 189.97 279.033 189.64 280.253 189.64 C 281.466 189.64 282.483 189.97 283.303 190.63 C 284.116 191.283 284.523 192.267 284.523 193.58 L 284.523 210.09 C 284.523 211.403 284.116 212.387 283.303 213.04 C 282.483 213.7 281.466 214.03 280.253 214.03 Z M 280.253 186.28 C 278.813 186.28 277.67 185.907 276.823 185.16 C 275.97 184.407 275.543 183.407 275.543 182.16 C 275.543 180.907 275.97 179.913 276.823 179.18 C 277.67 178.447 278.813 178.08 280.253 178.08 C 281.66 178.08 282.796 178.447 283.663 179.18 C 284.523 179.913 284.953 180.907 284.953 182.16 C 284.953 183.407 284.53 184.407 283.683 185.16 C 282.836 185.907 281.693 186.28 280.253 186.28 ZM 298.78 214.12 C 296.633 214.12 294.823 213.96 293.35 213.64 C 291.883 213.32 290.59 212.81 289.47 212.11 C 289.016 211.883 288.663 211.5 288.41 210.96 C 288.156 210.413 288.03 209.803 288.03 209.13 C 288.03 208.27 288.26 207.56 288.72 207 C 289.186 206.44 289.77 206.16 290.47 206.16 C 290.95 206.16 291.4 206.213 291.82 206.32 C 292.233 206.433 292.743 206.62 293.35 206.88 C 294.376 207.227 295.283 207.497 296.07 207.69 C 296.85 207.883 297.85 207.98 299.07 207.98 C 299.93 207.98 300.61 207.86 301.11 207.62 C 301.603 207.38 301.85 207.037 301.85 206.59 C 301.85 206.237 301.73 205.963 301.49 205.77 C 301.25 205.577 300.793 205.393 300.12 205.22 C 299.446 205.047 298.31 204.8 296.71 204.48 C 293.863 203.933 291.81 203.107 290.55 202 C 289.283 200.9 288.65 199.34 288.65 197.32 C 288.65 195.853 289.106 194.527 290.02 193.34 C 290.933 192.153 292.19 191.227 293.79 190.56 C 295.39 189.887 297.18 189.55 299.16 189.55 C 300.6 189.55 302 189.727 303.36 190.08 C 304.72 190.427 305.93 190.92 306.99 191.56 C 307.976 192.14 308.47 193.07 308.47 194.35 C 308.47 195.243 308.23 195.993 307.75 196.6 C 307.27 197.213 306.68 197.52 305.98 197.52 C 305.146 197.52 304.153 197.247 303 196.7 C 302.233 196.347 301.553 196.083 300.96 195.91 C 300.366 195.73 299.67 195.64 298.87 195.64 C 298.07 195.64 297.446 195.76 297 196 C 296.553 196.24 296.33 196.587 296.33 197.04 C 296.33 197.547 296.643 197.947 297.27 198.24 C 297.89 198.527 299.13 198.847 300.99 199.2 C 304.09 199.74 306.28 200.563 307.56 201.67 C 308.84 202.77 309.48 204.36 309.48 206.44 C 309.48 208.78 308.513 210.647 306.58 212.04 C 304.64 213.427 302.04 214.12 298.78 214.12 ZM 331.655 214.03 C 330.308 214.03 329.245 213.637 328.465 212.85 C 327.678 212.07 327.285 211.007 327.285 209.66 L 327.285 183.98 C 327.285 182.667 327.638 181.66 328.345 180.96 C 329.045 180.253 330.052 179.9 331.365 179.9 L 343.655 179.9 C 347.402 179.9 350.315 180.853 352.395 182.76 C 354.475 184.66 355.515 187.307 355.515 190.7 C 355.515 194.06 354.465 196.7 352.365 198.62 C 350.272 200.54 347.368 201.5 343.655 201.5 L 336.115 201.5 L 336.115 209.66 C 336.115 211.007 335.715 212.07 334.915 212.85 C 334.115 213.637 333.028 214.03 331.655 214.03 Z M 336.115 194.88 L 342.455 194.88 C 344.088 194.88 345.295 194.543 346.075 193.87 C 346.862 193.197 347.255 192.157 347.255 190.75 C 347.255 187.963 345.655 186.57 342.455 186.57 L 336.115 186.57 L 336.115 194.88 ZM 375.288 189.55 C 378.035 189.55 380.082 190.39 381.428 192.07 C 382.775 193.75 383.448 196.3 383.448 199.72 L 383.448 210.09 C 383.448 211.31 383.062 212.27 382.288 212.97 C 381.522 213.677 380.482 214.03 379.168 214.03 C 377.862 214.03 376.822 213.677 376.048 212.97 C 375.282 212.27 374.898 211.31 374.898 210.09 L 374.898 199.53 C 374.898 197.23 373.908 196.08 371.928 196.08 C 370.648 196.08 369.632 196.487 368.878 197.3 C 368.125 198.113 367.748 199.21 367.748 200.59 L 367.748 210.09 C 367.748 211.31 367.365 212.27 366.598 212.97 C 365.832 213.677 364.792 214.03 363.478 214.03 C 362.165 214.03 361.125 213.677 360.358 212.97 C 359.592 212.27 359.208 211.31 359.208 210.09 L 359.208 183.5 C 359.208 182.38 359.608 181.46 360.408 180.74 C 361.208 180.02 362.262 179.66 363.568 179.66 C 364.822 179.66 365.832 179.997 366.598 180.67 C 367.365 181.343 367.748 182.24 367.748 183.36 L 367.748 192.96 C 368.615 191.84 369.688 190.99 370.968 190.41 C 372.248 189.837 373.688 189.55 375.288 189.55 ZM 400.146 214.12 C 397.553 214.12 395.273 213.617 393.306 212.61 C 391.34 211.603 389.82 210.173 388.746 208.32 C 387.673 206.46 387.136 204.283 387.136 201.79 C 387.136 199.29 387.673 197.12 388.746 195.28 C 389.82 193.44 391.333 192.027 393.286 191.04 C 395.233 190.047 397.52 189.55 400.146 189.55 C 402.773 189.55 405.06 190.047 407.006 191.04 C 408.96 192.027 410.473 193.44 411.546 195.28 C 412.62 197.12 413.156 199.29 413.156 201.79 C 413.156 204.283 412.62 206.46 411.546 208.32 C 410.473 210.173 408.96 211.603 407.006 212.61 C 405.06 213.617 402.773 214.12 400.146 214.12 Z M 400.146 207.74 C 403.186 207.74 404.706 205.757 404.706 201.79 C 404.706 197.823 403.186 195.84 400.146 195.84 C 397.106 195.84 395.586 197.823 395.586 201.79 C 395.586 205.757 397.106 207.74 400.146 207.74 ZM 430.716 207.93 C 432.863 208.057 433.936 209.017 433.936 210.81 C 433.936 211.93 433.503 212.763 432.636 213.31 C 431.776 213.85 430.546 214.073 428.946 213.98 L 427.596 213.88 C 424.716 213.66 422.533 212.79 421.046 211.27 C 419.559 209.75 418.816 207.63 418.816 204.91 L 418.816 196.41 L 417.426 196.41 C 414.866 196.41 413.586 195.353 413.586 193.24 C 413.586 191.16 414.866 190.12 417.426 190.12 L 418.816 190.12 L 418.816 187 C 418.816 185.787 419.199 184.82 419.966 184.1 C 420.733 183.38 421.773 183.02 423.086 183.02 C 424.399 183.02 425.439 183.38 426.206 184.1 C 426.973 184.82 427.356 185.787 427.356 187 L 427.356 190.12 L 429.996 190.12 C 432.556 190.12 433.836 191.16 433.836 193.24 C 433.836 195.353 432.556 196.41 429.996 196.41 L 427.356 196.41 L 427.356 205.63 C 427.356 206.237 427.543 206.747 427.916 207.16 C 428.283 207.58 428.753 207.807 429.326 207.84 L 430.716 207.93 ZM 448.094 214.12 C 445.501 214.12 443.221 213.617 441.254 212.61 C 439.288 211.603 437.768 210.173 436.694 208.32 C 435.621 206.46 435.085 204.283 435.085 201.79 C 435.085 199.29 435.621 197.12 436.694 195.28 C 437.768 193.44 439.281 192.027 441.234 191.04 C 443.181 190.047 445.468 189.55 448.094 189.55 C 450.721 189.55 453.008 190.047 454.954 191.04 C 456.908 192.027 458.421 193.44 459.494 195.28 C 460.568 197.12 461.104 199.29 461.104 201.79 C 461.104 204.283 460.568 206.46 459.494 208.32 C 458.421 210.173 456.908 211.603 454.954 212.61 C 453.008 213.617 450.721 214.12 448.094 214.12 Z M 448.094 207.74 C 451.134 207.74 452.654 205.757 452.654 201.79 C 452.654 197.823 451.134 195.84 448.094 195.84 C 445.054 195.84 443.534 197.823 443.534 201.79 C 443.534 205.757 445.054 207.74 448.094 207.74 ZM 485.962 189.64 C 487.242 189.64 488.266 190 489.032 190.72 C 489.806 191.44 490.192 192.393 490.192 193.58 L 490.192 210.86 C 490.192 214.767 489.016 217.727 486.662 219.74 C 484.309 221.753 480.859 222.76 476.312 222.76 C 474.552 222.76 472.889 222.6 471.322 222.28 C 469.756 221.96 468.429 221.497 467.342 220.89 C 466.762 220.57 466.306 220.153 465.972 219.64 C 465.639 219.133 465.472 218.56 465.472 217.92 C 465.472 216.987 465.702 216.233 466.162 215.66 C 466.629 215.087 467.229 214.8 467.962 214.8 C 468.542 214.8 469.582 215.04 471.082 215.52 C 472.076 215.84 472.956 216.087 473.722 216.26 C 474.489 216.433 475.272 216.52 476.072 216.52 C 478.026 216.52 479.459 216.113 480.372 215.3 C 481.286 214.487 481.742 213.2 481.742 211.44 L 481.742 209.61 C 481.036 210.67 480.026 211.51 478.712 212.13 C 477.406 212.757 475.982 213.07 474.442 213.07 C 472.396 213.07 470.572 212.59 468.972 211.63 C 467.372 210.67 466.126 209.3 465.232 207.52 C 464.332 205.747 463.882 203.693 463.882 201.36 C 463.882 199.02 464.332 196.953 465.232 195.16 C 466.126 193.373 467.372 191.99 468.972 191.01 C 470.572 190.037 472.396 189.55 474.442 189.55 C 476.009 189.55 477.449 189.87 478.762 190.51 C 480.076 191.15 481.086 192.03 481.792 193.15 C 481.852 192.063 482.259 191.207 483.012 190.58 C 483.766 189.953 484.749 189.64 485.962 189.64 Z M 477.032 206.68 C 478.539 206.68 479.709 206.217 480.542 205.29 C 481.376 204.363 481.792 203.053 481.792 201.36 C 481.792 199.66 481.376 198.33 480.542 197.37 C 479.709 196.41 478.539 195.93 477.032 195.93 C 475.566 195.93 474.416 196.403 473.582 197.35 C 472.749 198.29 472.332 199.627 472.332 201.36 C 472.332 203.02 472.756 204.323 473.602 205.27 C 474.449 206.21 475.592 206.68 477.032 206.68 ZM 510.152 189.64 C 511.239 189.547 512.102 189.797 512.742 190.39 C 513.382 190.983 513.702 191.853 513.702 193 C 513.702 194.28 513.409 195.21 512.822 195.79 C 512.229 196.363 511.162 196.73 509.622 196.89 L 508.182 197.04 C 506.582 197.227 505.439 197.73 504.752 198.55 C 504.065 199.363 503.722 200.473 503.722 201.88 L 503.722 210.09 C 503.722 211.403 503.315 212.387 502.502 213.04 C 501.682 213.7 500.665 214.03 499.452 214.03 C 498.232 214.03 497.215 213.7 496.402 213.04 C 495.589 212.387 495.182 211.403 495.182 210.09 L 495.182 193.48 C 495.182 192.267 495.589 191.323 496.402 190.65 C 497.215 189.977 498.199 189.64 499.352 189.64 C 500.539 189.64 501.492 189.96 502.212 190.6 C 502.932 191.24 503.292 192.137 503.292 193.29 L 503.292 194.2 C 503.805 192.793 504.645 191.707 505.812 190.94 C 506.979 190.173 508.202 189.757 509.482 189.69 L 510.152 189.64 ZM 526.33 189.55 C 529.977 189.55 532.674 190.42 534.42 192.16 C 536.16 193.907 537.03 196.557 537.03 200.11 L 537.03 210.14 C 537.03 211.353 536.67 212.307 535.95 213 C 535.23 213.687 534.23 214.03 532.95 214.03 C 531.83 214.03 530.91 213.71 530.19 213.07 C 529.47 212.43 529.08 211.567 529.02 210.48 C 528.567 211.627 527.814 212.52 526.76 213.16 C 525.707 213.8 524.444 214.12 522.97 214.12 C 521.337 214.12 519.864 213.793 518.55 213.14 C 517.237 212.487 516.207 211.573 515.46 210.4 C 514.707 209.233 514.33 207.913 514.33 206.44 C 514.33 204.747 514.77 203.397 515.65 202.39 C 516.53 201.383 517.93 200.653 519.85 200.2 C 521.77 199.753 524.36 199.53 527.62 199.53 L 528.92 199.53 L 528.92 198.96 C 528.92 197.84 528.664 197.03 528.15 196.53 C 527.637 196.037 526.774 195.79 525.56 195.79 C 524.247 195.79 522.327 196.237 519.8 197.13 C 519.067 197.39 518.444 197.52 517.93 197.52 C 517.13 197.52 516.49 197.23 516.01 196.65 C 515.53 196.077 515.29 195.327 515.29 194.4 C 515.29 193.693 515.434 193.117 515.72 192.67 C 516.007 192.223 516.47 191.823 517.11 191.47 C 518.23 190.89 519.64 190.427 521.34 190.08 C 523.034 189.727 524.697 189.55 526.33 189.55 Z M 524.98 208.41 C 526.134 208.41 527.08 208.003 527.82 207.19 C 528.554 206.37 528.92 205.32 528.92 204.04 L 528.92 203.47 L 528.15 203.47 C 526.104 203.47 524.647 203.653 523.78 204.02 C 522.92 204.387 522.49 205.003 522.49 205.87 C 522.49 206.603 522.72 207.21 523.18 207.69 C 523.647 208.17 524.247 208.41 524.98 208.41 ZM 557.474 189.55 C 559.494 189.55 561.294 190.07 562.874 191.11 C 564.461 192.15 565.694 193.613 566.574 195.5 C 567.454 197.387 567.894 199.547 567.894 201.98 C 567.894 204.413 567.454 206.55 566.574 208.39 C 565.694 210.23 564.471 211.647 562.904 212.64 C 561.338 213.627 559.528 214.12 557.474 214.12 C 555.974 214.12 554.591 213.817 553.324 213.21 C 552.064 212.603 551.081 211.787 550.374 210.76 L 550.374 218.92 C 550.374 220.04 549.991 220.937 549.224 221.61 C 548.458 222.283 547.448 222.62 546.194 222.62 C 544.888 222.62 543.834 222.26 543.034 221.54 C 542.234 220.82 541.834 219.9 541.834 218.78 L 541.834 193.58 C 541.834 192.393 542.208 191.44 542.954 190.72 C 543.708 190 544.724 189.64 546.004 189.64 C 547.224 189.64 548.208 189.96 548.954 190.6 C 549.708 191.24 550.134 192.09 550.234 193.15 C 550.901 192.03 551.884 191.15 553.184 190.51 C 554.478 189.87 555.908 189.55 557.474 189.55 Z M 554.884 207.74 C 556.358 207.74 557.488 207.243 558.274 206.25 C 559.054 205.257 559.444 203.833 559.444 201.98 C 559.444 200.027 559.044 198.53 558.244 197.49 C 557.444 196.45 556.308 195.93 554.834 195.93 C 553.368 195.93 552.234 196.443 551.434 197.47 C 550.634 198.49 550.234 199.96 550.234 201.88 C 550.234 203.773 550.634 205.223 551.434 206.23 C 552.234 207.237 553.384 207.74 554.884 207.74 ZM 587.912 189.55 C 590.659 189.55 592.705 190.39 594.052 192.07 C 595.399 193.75 596.072 196.3 596.072 199.72 L 596.072 210.09 C 596.072 211.31 595.685 212.27 594.912 212.97 C 594.145 213.677 593.105 214.03 591.792 214.03 C 590.485 214.03 589.445 213.677 588.672 212.97 C 587.905 212.27 587.522 211.31 587.522 210.09 L 587.522 199.53 C 587.522 197.23 586.532 196.08 584.552 196.08 C 583.272 196.08 582.255 196.487 581.502 197.3 C 580.749 198.113 580.372 199.21 580.372 200.59 L 580.372 210.09 C 580.372 211.31 579.989 212.27 579.222 212.97 C 578.455 213.677 577.415 214.03 576.102 214.03 C 574.789 214.03 573.749 213.677 572.982 212.97 C 572.215 212.27 571.832 211.31 571.832 210.09 L 571.832 183.5 C 571.832 182.38 572.232 181.46 573.032 180.74 C 573.832 180.02 574.885 179.66 576.192 179.66 C 577.445 179.66 578.455 179.997 579.222 180.67 C 579.989 181.343 580.372 182.24 580.372 183.36 L 580.372 192.96 C 581.239 191.84 582.312 190.99 583.592 190.41 C 584.872 189.837 586.312 189.55 587.912 189.55 ZM 616.66 192.04 C 617.013 191.24 617.493 190.65 618.1 190.27 C 618.706 189.883 619.376 189.69 620.11 189.69 C 621.17 189.69 622.116 190.043 622.95 190.75 C 623.776 191.45 624.19 192.297 624.19 193.29 C 624.19 193.837 624.063 194.367 623.81 194.88 L 611.09 220.36 C 610.703 221.16 610.2 221.753 609.58 222.14 C 608.953 222.527 608.273 222.72 607.54 222.72 C 606.48 222.72 605.543 222.373 604.73 221.68 C 603.916 220.993 603.51 220.153 603.51 219.16 C 603.51 218.62 603.653 218.06 603.94 217.48 L 607.06 211.2 L 598.9 194.88 C 598.64 194.3 598.51 193.787 598.51 193.34 C 598.51 192.313 598.96 191.44 599.86 190.72 C 600.753 190 601.76 189.64 602.88 189.64 C 603.646 189.64 604.36 189.84 605.02 190.24 C 605.673 190.64 606.176 191.24 606.53 192.04 L 611.62 203.08 L 616.66 192.04 Z" transform="matrix(1, 0, 0, 1, 0, 0)" style="fill: rgb(51, 51, 51); white-space: pre;"/>
</svg>