<?xml version="1.0" encoding="utf-8"?>
<svg viewBox="85.9219970703125 149.23399353027344 1751.3909912109375 204.5" width="1751.3909912109375" height="204.5" xmlns="http://www.w3.org/2000/svg">
  <path d="M 176.831 194.24 C 180.631 194.24 183.754 195.49 186.201 197.99 C 188.654 200.49 189.881 203.74 189.881 207.74 L 189.881 287.99 C 189.881 292.09 188.681 295.39 186.281 297.89 C 183.881 300.39 180.781 301.64 176.981 301.64 C 172.481 301.64 169.081 300.14 166.781 297.14 L 121.181 240.29 L 121.181 287.99 C 121.181 292.09 120.031 295.39 117.731 297.89 C 115.431 300.39 112.331 301.64 108.431 301.64 C 104.631 301.64 101.531 300.39 99.131 297.89 C 96.731 295.39 95.531 292.09 95.531 287.99 L 95.531 207.74 C 95.531 203.74 96.731 200.49 99.131 197.99 C 101.531 195.49 104.631 194.24 108.431 194.24 C 112.731 194.24 116.081 195.74 118.481 198.74 L 164.081 255.44 L 164.081 207.74 C 164.081 203.64 165.254 200.363 167.601 197.91 C 169.954 195.463 173.031 194.24 176.831 194.24 ZM 220.627 301.64 C 216.827 301.64 213.654 300.617 211.107 298.57 C 208.554 296.517 207.277 293.44 207.277 289.34 L 207.277 237.74 C 207.277 233.64 208.554 230.567 211.107 228.52 C 213.654 226.467 216.827 225.44 220.627 225.44 C 224.427 225.44 227.601 226.467 230.147 228.52 C 232.701 230.567 233.977 233.64 233.977 237.74 L 233.977 289.34 C 233.977 293.44 232.701 296.517 230.147 298.57 C 227.601 300.617 224.427 301.64 220.627 301.64 Z M 220.627 214.94 C 216.127 214.94 212.551 213.763 209.897 211.41 C 207.251 209.063 205.927 205.94 205.927 202.04 C 205.927 198.14 207.251 195.04 209.897 192.74 C 212.551 190.44 216.127 189.29 220.627 189.29 C 225.027 189.29 228.577 190.44 231.277 192.74 C 233.977 195.04 235.327 198.14 235.327 202.04 C 235.327 205.94 234.004 209.063 231.357 211.41 C 228.704 213.763 225.127 214.94 220.627 214.94 ZM 284.976 301.94 C 272.976 301.94 263.476 298.54 256.476 291.74 C 249.476 284.94 245.976 275.69 245.976 263.99 C 245.976 256.29 247.676 249.49 251.076 243.59 C 254.476 237.69 259.249 233.14 265.396 229.94 C 271.549 226.74 278.576 225.14 286.476 225.14 C 290.676 225.14 294.876 225.69 299.076 226.79 C 303.276 227.89 306.976 229.44 310.176 231.44 C 313.276 233.34 314.826 236.24 314.826 240.14 C 314.826 243.24 314.099 245.767 312.646 247.72 C 311.199 249.667 309.326 250.64 307.026 250.64 C 305.526 250.64 304.076 250.417 302.676 249.97 C 301.276 249.517 299.726 248.84 298.026 247.94 C 296.026 247.04 294.326 246.367 292.926 245.92 C 291.526 245.467 289.976 245.24 288.276 245.24 C 278.376 245.24 273.426 251.29 273.426 263.39 C 273.426 269.39 274.703 273.963 277.256 277.11 C 279.803 280.263 283.476 281.84 288.276 281.84 C 289.976 281.84 291.553 281.617 293.006 281.17 C 294.453 280.717 296.076 280.04 297.876 279.14 C 299.876 278.24 301.503 277.563 302.756 277.11 C 304.003 276.663 305.376 276.44 306.876 276.44 C 309.176 276.44 311.053 277.413 312.506 279.36 C 313.953 281.313 314.676 283.84 314.676 286.94 C 314.676 288.84 314.276 290.563 313.476 292.11 C 312.676 293.663 311.576 294.84 310.176 295.64 C 303.276 299.84 294.876 301.94 284.976 301.94 ZM 398.073 280.04 C 400.673 282.54 401.973 285.44 401.973 288.74 C 401.973 292.04 400.8 294.99 398.453 297.59 C 396.1 300.19 393.273 301.49 389.973 301.49 C 387.173 301.49 384.373 300.24 381.573 297.74 L 351.123 268.79 L 351.123 289.04 C 351.123 293.14 349.847 296.24 347.293 298.34 C 344.747 300.44 341.573 301.49 337.773 301.49 C 333.973 301.49 330.8 300.44 328.253 298.34 C 325.7 296.24 324.423 293.14 324.423 289.04 L 324.423 206.69 C 324.423 202.59 325.7 199.49 328.253 197.39 C 330.8 195.29 333.973 194.24 337.773 194.24 C 341.573 194.24 344.747 195.29 347.293 197.39 C 349.847 199.49 351.123 202.59 351.123 206.69 L 351.123 257.54 L 378.873 229.34 C 381.373 226.74 384.273 225.44 387.573 225.44 C 390.773 225.44 393.597 226.663 396.043 229.11 C 398.497 231.563 399.723 234.34 399.723 237.44 C 399.723 240.54 398.423 243.39 395.823 245.99 L 379.473 262.19 L 398.073 280.04 ZM 468.869 300.74 C 464.769 300.74 461.619 299.64 459.419 297.44 C 457.219 295.24 456.119 292.04 456.119 287.84 L 456.119 207.74 C 456.119 203.64 457.346 200.363 459.799 197.91 C 462.246 195.463 465.569 194.24 469.769 194.24 C 474.069 194.24 477.469 195.463 479.969 197.91 C 482.469 200.363 483.719 203.64 483.719 207.74 L 483.719 278.39 L 518.219 278.39 C 526.919 278.39 531.269 282.14 531.269 289.64 C 531.269 293.44 530.192 296.24 528.039 298.04 C 525.892 299.84 522.619 300.74 518.219 300.74 L 468.869 300.74 ZM 599.216 277.04 C 601.516 277.04 603.39 277.94 604.836 279.74 C 606.29 281.54 607.016 283.89 607.016 286.79 C 607.016 290.79 605.066 293.84 601.166 295.94 C 597.766 297.64 593.74 299.063 589.086 300.21 C 584.44 301.363 580.166 301.94 576.266 301.94 C 568.066 301.94 560.916 300.39 554.816 297.29 C 548.716 294.19 544.016 289.74 540.716 283.94 C 537.416 278.14 535.766 271.34 535.766 263.54 C 535.766 256.14 537.34 249.517 540.486 243.67 C 543.64 237.817 548.04 233.267 553.686 230.02 C 559.34 226.767 565.716 225.14 572.816 225.14 C 579.716 225.14 585.766 226.64 590.966 229.64 C 596.166 232.64 600.193 236.89 603.046 242.39 C 605.893 247.89 607.316 254.34 607.316 261.74 C 607.316 264.04 606.793 265.817 605.746 267.07 C 604.693 268.317 603.166 268.94 601.166 268.94 L 561.566 268.94 C 562.266 273.74 563.816 277.19 566.216 279.29 C 568.616 281.39 572.166 282.44 576.866 282.44 C 579.366 282.44 581.666 282.163 583.766 281.61 C 585.866 281.063 588.216 280.29 590.816 279.29 C 592.316 278.69 593.79 278.167 595.236 277.72 C 596.69 277.267 598.016 277.04 599.216 277.04 Z M 573.566 243.14 C 570.066 243.14 567.266 244.263 565.166 246.51 C 563.066 248.763 561.816 252.04 561.416 256.34 L 584.966 256.34 C 584.366 247.54 580.566 243.14 573.566 243.14 ZM 716.364 232.94 C 717.364 230.44 718.79 228.567 720.644 227.32 C 722.49 226.067 724.514 225.44 726.714 225.44 C 730.014 225.44 732.964 226.567 735.564 228.82 C 738.164 231.067 739.464 233.79 739.464 236.99 C 739.464 238.49 739.064 240.14 738.264 241.94 L 713.964 293.99 C 712.864 296.49 711.187 298.417 708.934 299.77 C 706.687 301.117 704.214 301.79 701.514 301.79 C 698.814 301.79 696.364 301.117 694.164 299.77 C 691.964 298.417 690.314 296.49 689.214 293.99 L 674.964 262.34 L 661.614 293.99 C 660.614 296.49 658.99 298.417 656.744 299.77 C 654.49 301.117 652.014 301.79 649.314 301.79 C 646.614 301.79 644.14 301.117 641.894 299.77 C 639.64 298.417 637.914 296.49 636.714 293.99 L 612.564 241.94 C 611.864 240.44 611.514 238.84 611.514 237.14 C 611.514 233.84 612.89 231.067 615.644 228.82 C 618.39 226.567 621.464 225.44 624.864 225.44 C 627.264 225.44 629.44 226.067 631.394 227.32 C 633.34 228.567 634.814 230.49 635.814 233.09 L 650.064 267.74 L 664.614 233.24 C 665.614 230.74 667.164 228.84 669.264 227.54 C 671.364 226.24 673.614 225.59 676.014 225.59 C 678.414 225.59 680.664 226.24 682.764 227.54 C 684.864 228.84 686.414 230.74 687.414 233.24 L 702.414 267.89 L 716.364 232.94 ZM 761.959 301.64 C 758.159 301.64 754.986 300.617 752.439 298.57 C 749.886 296.517 748.609 293.44 748.609 289.34 L 748.609 237.74 C 748.609 233.64 749.886 230.567 752.439 228.52 C 754.986 226.467 758.159 225.44 761.959 225.44 C 765.759 225.44 768.933 226.467 771.479 228.52 C 774.033 230.567 775.309 233.64 775.309 237.74 L 775.309 289.34 C 775.309 293.44 774.033 296.517 771.479 298.57 C 768.933 300.617 765.759 301.64 761.959 301.64 Z M 761.959 214.94 C 757.459 214.94 753.883 213.763 751.229 211.41 C 748.583 209.063 747.259 205.94 747.259 202.04 C 747.259 198.14 748.583 195.04 751.229 192.74 C 753.883 190.44 757.459 189.29 761.959 189.29 C 766.359 189.29 769.909 190.44 772.609 192.74 C 775.309 195.04 776.659 198.14 776.659 202.04 C 776.659 205.94 775.336 209.063 772.689 211.41 C 770.036 213.763 766.459 214.94 761.959 214.94 ZM 819.858 301.94 C 813.158 301.94 807.508 301.44 802.908 300.44 C 798.308 299.44 794.258 297.84 790.758 295.64 C 789.358 294.94 788.258 293.74 787.458 292.04 C 786.658 290.34 786.258 288.44 786.258 286.34 C 786.258 283.64 786.981 281.417 788.428 279.67 C 789.881 277.917 791.708 277.04 793.908 277.04 C 795.408 277.04 796.808 277.213 798.108 277.56 C 799.408 277.913 801.008 278.49 802.908 279.29 C 806.108 280.39 808.935 281.24 811.388 281.84 C 813.835 282.44 816.958 282.74 820.758 282.74 C 823.458 282.74 825.581 282.363 827.128 281.61 C 828.681 280.863 829.458 279.79 829.458 278.39 C 829.458 277.29 829.085 276.44 828.338 275.84 C 827.585 275.24 826.158 274.663 824.058 274.11 C 821.958 273.563 818.408 272.79 813.408 271.79 C 804.508 270.09 798.081 267.517 794.128 264.07 C 790.181 260.617 788.208 255.74 788.208 249.44 C 788.208 244.84 789.635 240.69 792.488 236.99 C 795.335 233.29 799.258 230.39 804.258 228.29 C 809.258 226.19 814.858 225.14 821.058 225.14 C 825.558 225.14 829.935 225.69 834.188 226.79 C 838.435 227.89 842.208 229.44 845.508 231.44 C 848.608 233.24 850.158 236.14 850.158 240.14 C 850.158 242.94 849.408 245.29 847.908 247.19 C 846.408 249.09 844.558 250.04 842.358 250.04 C 839.758 250.04 836.658 249.19 833.058 247.49 C 830.658 246.39 828.535 245.563 826.688 245.01 C 824.835 244.463 822.658 244.19 820.158 244.19 C 817.658 244.19 815.708 244.567 814.308 245.32 C 812.908 246.067 812.208 247.14 812.208 248.54 C 812.208 250.14 813.181 251.39 815.128 252.29 C 817.081 253.19 820.958 254.19 826.758 255.29 C 836.458 256.99 843.308 259.563 847.308 263.01 C 851.308 266.463 853.308 271.44 853.308 277.94 C 853.308 285.24 850.281 291.063 844.228 295.41 C 838.181 299.763 830.058 301.94 819.858 301.94 ZM 922.604 301.64 C 918.404 301.64 915.081 300.417 912.634 297.97 C 910.181 295.517 908.954 292.19 908.954 287.99 L 908.954 207.74 C 908.954 203.64 910.054 200.49 912.254 198.29 C 914.454 196.09 917.604 194.99 921.704 194.99 L 960.104 194.99 C 971.804 194.99 980.904 197.963 987.404 203.91 C 993.904 209.863 997.154 218.14 997.154 228.74 C 997.154 239.24 993.877 247.49 987.324 253.49 C 980.777 259.49 971.704 262.49 960.104 262.49 L 936.554 262.49 L 936.554 287.99 C 936.554 292.19 935.304 295.517 932.804 297.97 C 930.304 300.417 926.904 301.64 922.604 301.64 Z M 936.554 241.79 L 956.354 241.79 C 961.454 241.79 965.231 240.74 967.684 238.64 C 970.131 236.54 971.354 233.29 971.354 228.89 C 971.354 220.19 966.354 215.84 956.354 215.84 L 936.554 215.84 L 936.554 241.79 ZM 1058.951 225.14 C 1067.551 225.14 1073.951 227.767 1078.151 233.02 C 1082.351 238.267 1084.451 246.24 1084.451 256.94 L 1084.451 289.34 C 1084.451 293.14 1083.251 296.14 1080.851 298.34 C 1078.451 300.54 1075.201 301.64 1071.101 301.64 C 1067.001 301.64 1063.751 300.54 1061.351 298.34 C 1058.951 296.14 1057.751 293.14 1057.751 289.34 L 1057.751 256.34 C 1057.751 249.14 1054.651 245.54 1048.451 245.54 C 1044.451 245.54 1041.274 246.813 1038.921 249.36 C 1036.574 251.913 1035.401 255.34 1035.401 259.64 L 1035.401 289.34 C 1035.401 293.14 1034.201 296.14 1031.801 298.34 C 1029.401 300.54 1026.151 301.64 1022.051 301.64 C 1017.951 301.64 1014.701 300.54 1012.301 298.34 C 1009.901 296.14 1008.701 293.14 1008.701 289.34 L 1008.701 206.24 C 1008.701 202.74 1009.951 199.863 1012.451 197.61 C 1014.951 195.363 1018.251 194.24 1022.351 194.24 C 1026.251 194.24 1029.401 195.29 1031.801 197.39 C 1034.201 199.49 1035.401 202.29 1035.401 205.79 L 1035.401 235.79 C 1038.101 232.29 1041.451 229.64 1045.451 227.84 C 1049.451 226.04 1053.951 225.14 1058.951 225.14 ZM 1136.648 301.94 C 1128.548 301.94 1121.424 300.367 1115.278 297.22 C 1109.124 294.067 1104.374 289.59 1101.028 283.79 C 1097.674 277.99 1095.998 271.19 1095.998 263.39 C 1095.998 255.59 1097.674 248.817 1101.028 243.07 C 1104.374 237.317 1109.098 232.89 1115.198 229.79 C 1121.298 226.69 1128.448 225.14 1136.648 225.14 C 1144.848 225.14 1151.998 226.69 1158.098 229.79 C 1164.198 232.89 1168.924 237.317 1172.278 243.07 C 1175.624 248.817 1177.298 255.59 1177.298 263.39 C 1177.298 271.19 1175.624 277.99 1172.278 283.79 C 1168.924 289.59 1164.198 294.067 1158.098 297.22 C 1151.998 300.367 1144.848 301.94 1136.648 301.94 Z M 1136.648 281.99 C 1146.148 281.99 1150.898 275.79 1150.898 263.39 C 1150.898 250.99 1146.148 244.79 1136.648 244.79 C 1127.148 244.79 1122.398 250.99 1122.398 263.39 C 1122.398 275.79 1127.148 281.99 1136.648 281.99 ZM 1232.195 282.59 C 1238.895 282.99 1242.245 285.99 1242.245 291.59 C 1242.245 295.09 1240.895 297.69 1238.195 299.39 C 1235.495 301.09 1231.645 301.79 1226.645 301.49 L 1222.445 301.19 C 1213.445 300.49 1206.618 297.767 1201.965 293.02 C 1197.318 288.267 1194.995 281.64 1194.995 273.14 L 1194.995 246.59 L 1190.645 246.59 C 1182.645 246.59 1178.645 243.29 1178.645 236.69 C 1178.645 230.19 1182.645 226.94 1190.645 226.94 L 1194.995 226.94 L 1194.995 217.19 C 1194.995 213.39 1196.195 210.363 1198.595 208.11 C 1200.995 205.863 1204.245 204.74 1208.345 204.74 C 1212.445 204.74 1215.695 205.863 1218.095 208.11 C 1220.495 210.363 1221.695 213.39 1221.695 217.19 L 1221.695 226.94 L 1229.945 226.94 C 1237.945 226.94 1241.945 230.19 1241.945 236.69 C 1241.945 243.29 1237.945 246.59 1229.945 246.59 L 1221.695 246.59 L 1221.695 275.39 C 1221.695 277.29 1222.268 278.89 1223.415 280.19 C 1224.568 281.49 1226.045 282.19 1227.845 282.29 L 1232.195 282.59 ZM 1286.493 301.94 C 1278.393 301.94 1271.269 300.367 1265.123 297.22 C 1258.969 294.067 1254.219 289.59 1250.873 283.79 C 1247.519 277.99 1245.843 271.19 1245.843 263.39 C 1245.843 255.59 1247.519 248.817 1250.873 243.07 C 1254.219 237.317 1258.943 232.89 1265.043 229.79 C 1271.143 226.69 1278.293 225.14 1286.493 225.14 C 1294.693 225.14 1301.843 226.69 1307.943 229.79 C 1314.043 232.89 1318.769 237.317 1322.123 243.07 C 1325.469 248.817 1327.143 255.59 1327.143 263.39 C 1327.143 271.19 1325.469 277.99 1322.123 283.79 C 1318.769 289.59 1314.043 294.067 1307.943 297.22 C 1301.843 300.367 1294.693 301.94 1286.493 301.94 Z M 1286.493 281.99 C 1295.993 281.99 1300.743 275.79 1300.743 263.39 C 1300.743 250.99 1295.993 244.79 1286.493 244.79 C 1276.993 244.79 1272.243 250.99 1272.243 263.39 C 1272.243 275.79 1276.993 281.99 1286.493 281.99 ZM 1404.839 225.44 C 1408.839 225.44 1412.04 226.567 1414.439 228.82 C 1416.839 231.067 1418.04 234.04 1418.04 237.74 L 1418.04 291.74 C 1418.04 303.94 1414.363 313.19 1407.01 319.49 C 1399.663 325.79 1388.89 328.94 1374.689 328.94 C 1369.189 328.94 1363.99 328.44 1359.089 327.44 C 1354.189 326.44 1350.04 324.99 1346.64 323.09 C 1344.839 322.09 1343.416 320.79 1342.37 319.19 C 1341.316 317.59 1340.79 315.79 1340.79 313.79 C 1340.79 310.89 1341.513 308.54 1342.959 306.74 C 1344.413 304.94 1346.29 304.04 1348.589 304.04 C 1350.39 304.04 1353.64 304.79 1358.339 306.29 C 1361.439 307.29 1364.189 308.067 1366.589 308.62 C 1368.99 309.167 1371.439 309.44 1373.939 309.44 C 1380.04 309.44 1384.516 308.167 1387.37 305.62 C 1390.216 303.067 1391.64 299.04 1391.64 293.54 L 1391.64 287.84 C 1389.439 291.14 1386.29 293.767 1382.189 295.72 C 1378.089 297.667 1373.64 298.64 1368.839 298.64 C 1362.439 298.64 1356.74 297.14 1351.74 294.14 C 1346.74 291.14 1342.839 286.863 1340.04 281.31 C 1337.24 275.763 1335.839 269.34 1335.839 262.04 C 1335.839 254.74 1337.24 248.29 1340.04 242.69 C 1342.839 237.09 1346.74 232.767 1351.74 229.72 C 1356.74 226.667 1362.439 225.14 1368.839 225.14 C 1373.74 225.14 1378.24 226.14 1382.339 228.14 C 1386.439 230.14 1389.589 232.89 1391.79 236.39 C 1391.99 232.99 1393.266 230.313 1395.62 228.36 C 1397.966 226.413 1401.04 225.44 1404.839 225.44 Z M 1376.939 278.69 C 1381.64 278.69 1385.29 277.24 1387.89 274.34 C 1390.49 271.44 1391.79 267.34 1391.79 262.04 C 1391.79 256.74 1390.49 252.59 1387.89 249.59 C 1385.29 246.59 1381.64 245.09 1376.939 245.09 C 1372.339 245.09 1368.74 246.563 1366.14 249.51 C 1363.54 252.463 1362.24 256.64 1362.24 262.04 C 1362.24 267.24 1363.566 271.317 1366.219 274.27 C 1368.866 277.217 1372.439 278.69 1376.939 278.69 ZM 1480.436 225.44 C 1483.836 225.14 1486.536 225.917 1488.536 227.77 C 1490.536 229.617 1491.536 232.34 1491.536 235.94 C 1491.536 239.94 1490.61 242.84 1488.756 244.64 C 1486.91 246.44 1483.586 247.59 1478.786 248.09 L 1474.286 248.54 C 1469.286 249.14 1465.713 250.713 1463.566 253.26 C 1461.413 255.813 1460.336 259.29 1460.336 263.69 L 1460.336 289.34 C 1460.336 293.44 1459.06 296.517 1456.506 298.57 C 1453.96 300.617 1450.786 301.64 1446.986 301.64 C 1443.186 301.64 1440.013 300.617 1437.466 298.57 C 1434.913 296.517 1433.636 293.44 1433.636 289.34 L 1433.636 237.44 C 1433.636 233.64 1434.913 230.69 1437.466 228.59 C 1440.013 226.49 1443.086 225.44 1446.686 225.44 C 1450.386 225.44 1453.36 226.44 1455.606 228.44 C 1457.86 230.44 1458.986 233.24 1458.986 236.84 L 1458.986 239.69 C 1460.586 235.29 1463.21 231.89 1466.856 229.49 C 1470.51 227.09 1474.336 225.79 1478.336 225.59 L 1480.436 225.44 ZM 1530.984 225.14 C 1542.384 225.14 1550.808 227.867 1556.254 233.32 C 1561.708 238.767 1564.434 247.04 1564.434 258.14 L 1564.434 289.49 C 1564.434 293.29 1563.308 296.267 1561.054 298.42 C 1558.808 300.567 1555.684 301.64 1551.684 301.64 C 1548.184 301.64 1545.311 300.64 1543.064 298.64 C 1540.811 296.64 1539.584 293.94 1539.384 290.54 C 1537.984 294.14 1535.634 296.94 1532.334 298.94 C 1529.034 300.94 1525.084 301.94 1520.484 301.94 C 1515.384 301.94 1510.784 300.913 1506.684 298.86 C 1502.584 296.813 1499.358 293.967 1497.004 290.32 C 1494.658 286.667 1493.484 282.54 1493.484 277.94 C 1493.484 272.64 1494.861 268.413 1497.614 265.26 C 1500.361 262.113 1504.734 259.84 1510.734 258.44 C 1516.734 257.04 1524.834 256.34 1535.034 256.34 L 1539.084 256.34 L 1539.084 254.54 C 1539.084 251.04 1538.284 248.517 1536.684 246.97 C 1535.084 245.417 1532.384 244.64 1528.584 244.64 C 1524.484 244.64 1518.484 246.04 1510.584 248.84 C 1508.284 249.64 1506.334 250.04 1504.734 250.04 C 1502.234 250.04 1500.234 249.14 1498.734 247.34 C 1497.234 245.54 1496.484 243.19 1496.484 240.29 C 1496.484 238.09 1496.934 236.29 1497.834 234.89 C 1498.734 233.49 1500.184 232.24 1502.184 231.14 C 1505.684 229.34 1510.084 227.89 1515.384 226.79 C 1520.684 225.69 1525.884 225.14 1530.984 225.14 Z M 1526.784 284.09 C 1530.384 284.09 1533.334 282.817 1535.634 280.27 C 1537.934 277.717 1539.084 274.44 1539.084 270.44 L 1539.084 268.64 L 1536.684 268.64 C 1530.284 268.64 1525.734 269.213 1523.034 270.36 C 1520.334 271.513 1518.984 273.44 1518.984 276.14 C 1518.984 278.44 1519.708 280.34 1521.154 281.84 C 1522.608 283.34 1524.484 284.09 1526.784 284.09 ZM 1628.331 225.14 C 1634.631 225.14 1640.258 226.767 1645.211 230.02 C 1650.158 233.267 1654.008 237.84 1656.761 243.74 C 1659.508 249.64 1660.881 256.39 1660.881 263.99 C 1660.881 271.59 1659.508 278.267 1656.761 284.02 C 1654.008 289.767 1650.182 294.19 1645.281 297.29 C 1640.381 300.39 1634.731 301.94 1628.331 301.94 C 1623.631 301.94 1619.308 300.99 1615.361 299.09 C 1611.408 297.19 1608.331 294.64 1606.131 291.44 L 1606.131 316.94 C 1606.131 320.44 1604.932 323.24 1602.531 325.34 C 1600.131 327.44 1596.981 328.49 1593.081 328.49 C 1588.981 328.49 1585.682 327.367 1583.182 325.12 C 1580.682 322.867 1579.432 319.99 1579.432 316.49 L 1579.432 237.74 C 1579.432 234.04 1580.605 231.067 1582.951 228.82 C 1585.305 226.567 1588.481 225.44 1592.481 225.44 C 1596.281 225.44 1599.355 226.44 1601.701 228.44 C 1604.055 230.44 1605.381 233.09 1605.682 236.39 C 1607.781 232.89 1610.855 230.14 1614.901 228.14 C 1618.955 226.14 1623.432 225.14 1628.331 225.14 Z M 1620.231 281.99 C 1624.831 281.99 1628.355 280.44 1630.802 277.34 C 1633.255 274.24 1634.481 269.79 1634.481 263.99 C 1634.481 257.89 1633.231 253.217 1630.731 249.97 C 1628.231 246.717 1624.682 245.09 1620.081 245.09 C 1615.481 245.09 1611.932 246.69 1609.432 249.89 C 1606.932 253.09 1605.682 257.69 1605.682 263.69 C 1605.682 269.59 1606.932 274.117 1609.432 277.27 C 1611.932 280.417 1615.531 281.99 1620.231 281.99 ZM 1723.428 225.14 C 1732.028 225.14 1738.428 227.767 1742.628 233.02 C 1746.828 238.267 1748.928 246.24 1748.928 256.94 L 1748.928 289.34 C 1748.928 293.14 1747.728 296.14 1745.328 298.34 C 1742.928 300.54 1739.678 301.64 1735.578 301.64 C 1731.478 301.64 1728.228 300.54 1725.828 298.34 C 1723.428 296.14 1722.228 293.14 1722.228 289.34 L 1722.228 256.34 C 1722.228 249.14 1719.128 245.54 1712.928 245.54 C 1708.928 245.54 1705.752 246.813 1703.398 249.36 C 1701.052 251.913 1699.878 255.34 1699.878 259.64 L 1699.878 289.34 C 1699.878 293.14 1698.678 296.14 1696.278 298.34 C 1693.878 300.54 1690.628 301.64 1686.528 301.64 C 1682.428 301.64 1679.178 300.54 1676.778 298.34 C 1674.378 296.14 1673.178 293.14 1673.178 289.34 L 1673.178 206.24 C 1673.178 202.74 1674.428 199.863 1676.928 197.61 C 1679.428 195.363 1682.728 194.24 1686.828 194.24 C 1690.728 194.24 1693.878 195.29 1696.278 197.39 C 1698.678 199.49 1699.878 202.29 1699.878 205.79 L 1699.878 235.79 C 1702.578 232.29 1705.928 229.64 1709.928 227.84 C 1713.928 226.04 1718.428 225.14 1723.428 225.14 ZM 1813.275 232.94 C 1814.375 230.44 1815.875 228.59 1817.775 227.39 C 1819.675 226.19 1821.775 225.59 1824.075 225.59 C 1827.375 225.59 1830.325 226.69 1832.925 228.89 C 1835.525 231.09 1836.825 233.74 1836.825 236.84 C 1836.825 238.54 1836.425 240.19 1835.625 241.79 L 1795.875 321.44 C 1794.675 323.94 1793.099 325.79 1791.145 326.99 C 1789.199 328.19 1787.075 328.79 1784.775 328.79 C 1781.475 328.79 1778.552 327.713 1776.005 325.56 C 1773.452 323.413 1772.175 320.79 1772.175 317.69 C 1772.175 315.99 1772.625 314.24 1773.525 312.44 L 1783.275 292.79 L 1757.775 241.79 C 1756.975 239.99 1756.575 238.39 1756.575 236.99 C 1756.575 233.79 1757.975 231.067 1760.775 228.82 C 1763.575 226.567 1766.725 225.44 1770.225 225.44 C 1772.625 225.44 1774.849 226.067 1776.895 227.32 C 1778.949 228.567 1780.525 230.44 1781.625 232.94 L 1797.525 267.44 L 1813.275 232.94 Z" transform="matrix(1, 0, 0, 1, 0, 0)" style="fill: rgb(51, 51, 51); white-space: pre;"/>
</svg>