<?xml version="1.0" encoding="utf-8"?>
<svg viewBox="63.922000885009766 165.281005859375 600 250" width="600" height="250" xmlns="http://www.w3.org/2000/svg">
  <path d="M 93.021 179.66 C 94.234 179.66 95.234 180.06 96.021 180.86 C 96.801 181.66 97.191 182.7 97.191 183.98 L 97.191 209.66 C 97.191 210.973 96.808 212.03 96.041 212.83 C 95.274 213.63 94.284 214.03 93.071 214.03 C 91.631 214.03 90.541 213.55 89.801 212.59 L 75.211 194.4 L 75.211 209.66 C 75.211 210.973 74.844 212.03 74.111 212.83 C 73.371 213.63 72.378 214.03 71.131 214.03 C 69.918 214.03 68.924 213.63 68.151 212.83 C 67.384 212.03 67.001 210.973 67.001 209.66 L 67.001 183.98 C 67.001 182.7 67.384 181.66 68.151 180.86 C 68.924 180.06 69.918 179.66 71.131 179.66 C 72.504 179.66 73.578 180.14 74.351 181.1 L 88.941 199.24 L 88.941 183.98 C 88.941 182.667 89.318 181.62 90.071 180.84 C 90.818 180.053 91.801 179.66 93.021 179.66 ZM 107.037 214.03 C 105.817 214.03 104.8 213.7 103.987 213.04 C 103.174 212.387 102.767 211.403 102.767 210.09 L 102.767 193.58 C 102.767 192.267 103.174 191.283 103.987 190.63 C 104.8 189.97 105.817 189.64 107.037 189.64 C 108.25 189.64 109.267 189.97 110.087 190.63 C 110.9 191.283 111.307 192.267 111.307 193.58 L 111.307 210.09 C 111.307 211.403 110.9 212.387 110.087 213.04 C 109.267 213.7 108.25 214.03 107.037 214.03 Z M 107.037 186.28 C 105.597 186.28 104.454 185.907 103.607 185.16 C 102.754 184.407 102.327 183.407 102.327 182.16 C 102.327 180.907 102.754 179.913 103.607 179.18 C 104.454 178.447 105.597 178.08 107.037 178.08 C 108.444 178.08 109.58 178.447 110.447 179.18 C 111.307 179.913 111.737 180.907 111.737 182.16 C 111.737 183.407 111.314 184.407 110.467 185.16 C 109.62 185.907 108.477 186.28 107.037 186.28 ZM 127.625 214.12 C 123.785 214.12 120.745 213.033 118.505 210.86 C 116.265 208.687 115.145 205.727 115.145 201.98 C 115.145 199.513 115.688 197.337 116.775 195.45 C 117.868 193.563 119.398 192.107 121.365 191.08 C 123.332 190.06 125.578 189.55 128.105 189.55 C 129.452 189.55 130.795 189.727 132.135 190.08 C 133.482 190.427 134.668 190.92 135.695 191.56 C 136.682 192.173 137.175 193.103 137.175 194.35 C 137.175 195.343 136.945 196.15 136.485 196.77 C 136.018 197.397 135.418 197.71 134.685 197.71 C 134.205 197.71 133.742 197.637 133.295 197.49 C 132.842 197.35 132.345 197.133 131.805 196.84 C 131.165 196.553 130.622 196.34 130.175 196.2 C 129.722 196.053 129.225 195.98 128.685 195.98 C 125.518 195.98 123.935 197.917 123.935 201.79 C 123.935 203.71 124.342 205.173 125.155 206.18 C 125.968 207.187 127.145 207.69 128.685 207.69 C 129.225 207.69 129.728 207.62 130.195 207.48 C 130.662 207.333 131.182 207.117 131.755 206.83 C 132.395 206.543 132.915 206.327 133.315 206.18 C 133.715 206.033 134.155 205.96 134.635 205.96 C 135.368 205.96 135.968 206.273 136.435 206.9 C 136.902 207.527 137.135 208.333 137.135 209.32 C 137.135 209.933 137.005 210.487 136.745 210.98 C 136.492 211.473 136.142 211.85 135.695 212.11 C 133.482 213.45 130.792 214.12 127.625 214.12 ZM 163.815 207.12 C 164.648 207.92 165.065 208.847 165.065 209.9 C 165.065 210.953 164.688 211.897 163.935 212.73 C 163.188 213.563 162.285 213.98 161.225 213.98 C 160.332 213.98 159.435 213.58 158.535 212.78 L 148.795 203.52 L 148.795 210 C 148.795 211.307 148.388 212.297 147.575 212.97 C 146.755 213.643 145.738 213.98 144.525 213.98 C 143.305 213.98 142.288 213.643 141.475 212.97 C 140.662 212.297 140.255 211.307 140.255 210 L 140.255 183.64 C 140.255 182.333 140.662 181.343 141.475 180.67 C 142.288 179.997 143.305 179.66 144.525 179.66 C 145.738 179.66 146.755 179.997 147.575 180.67 C 148.388 181.343 148.795 182.333 148.795 183.64 L 148.795 199.92 L 157.675 190.89 C 158.475 190.057 159.402 189.64 160.455 189.64 C 161.482 189.64 162.388 190.033 163.175 190.82 C 163.955 191.607 164.345 192.493 164.345 193.48 C 164.345 194.473 163.928 195.387 163.095 196.22 L 157.865 201.4 L 163.815 207.12 ZM 186.473 213.74 C 185.16 213.74 184.153 213.387 183.453 212.68 C 182.746 211.98 182.393 210.957 182.393 209.61 L 182.393 183.98 C 182.393 182.667 182.786 181.62 183.573 180.84 C 184.353 180.053 185.416 179.66 186.763 179.66 C 188.136 179.66 189.223 180.053 190.023 180.84 C 190.823 181.62 191.223 182.667 191.223 183.98 L 191.223 206.59 L 202.263 206.59 C 205.05 206.59 206.443 207.79 206.443 210.19 C 206.443 211.403 206.1 212.3 205.413 212.88 C 204.726 213.453 203.676 213.74 202.263 213.74 L 186.473 213.74 ZM 228.191 206.16 C 228.924 206.16 229.524 206.447 229.991 207.02 C 230.451 207.593 230.681 208.347 230.681 209.28 C 230.681 210.56 230.058 211.533 228.811 212.2 C 227.724 212.747 226.438 213.203 224.951 213.57 C 223.458 213.937 222.088 214.12 220.841 214.12 C 218.221 214.12 215.934 213.627 213.981 212.64 C 212.028 211.647 210.524 210.22 209.471 208.36 C 208.411 206.507 207.881 204.333 207.881 201.84 C 207.881 199.467 208.384 197.347 209.391 195.48 C 210.404 193.607 211.814 192.15 213.621 191.11 C 215.428 190.07 217.468 189.55 219.741 189.55 C 221.948 189.55 223.884 190.03 225.551 190.99 C 227.211 191.95 228.498 193.31 229.411 195.07 C 230.324 196.83 230.781 198.893 230.781 201.26 C 230.781 201.993 230.611 202.56 230.271 202.96 C 229.938 203.36 229.451 203.56 228.811 203.56 L 216.141 203.56 C 216.361 205.1 216.858 206.207 217.631 206.88 C 218.398 207.547 219.531 207.88 221.031 207.88 C 221.831 207.88 222.568 207.793 223.241 207.62 C 223.914 207.447 224.668 207.2 225.501 206.88 C 225.981 206.687 226.451 206.517 226.911 206.37 C 227.378 206.23 227.804 206.16 228.191 206.16 Z M 219.981 195.31 C 218.861 195.31 217.964 195.67 217.291 196.39 C 216.618 197.11 216.218 198.157 216.091 199.53 L 223.631 199.53 C 223.438 196.717 222.221 195.31 219.981 195.31 ZM 265.673 192.04 C 265.993 191.24 266.45 190.64 267.043 190.24 C 267.636 189.84 268.283 189.64 268.983 189.64 C 270.043 189.64 270.99 190 271.823 190.72 C 272.65 191.44 273.063 192.313 273.063 193.34 C 273.063 193.82 272.936 194.347 272.683 194.92 L 264.903 211.58 C 264.556 212.38 264.023 212.997 263.303 213.43 C 262.583 213.863 261.79 214.08 260.923 214.08 C 260.056 214.08 259.273 213.863 258.573 213.43 C 257.866 212.997 257.336 212.38 256.983 211.58 L 252.423 201.45 L 248.153 211.58 C 247.833 212.38 247.313 212.997 246.593 213.43 C 245.873 213.863 245.083 214.08 244.223 214.08 C 243.356 214.08 242.563 213.863 241.843 213.43 C 241.123 212.997 240.57 212.38 240.183 211.58 L 232.463 194.92 C 232.236 194.44 232.123 193.93 232.123 193.39 C 232.123 192.33 232.563 191.44 233.443 190.72 C 234.323 190 235.306 189.64 236.393 189.64 C 237.16 189.64 237.856 189.84 238.483 190.24 C 239.11 190.64 239.583 191.257 239.903 192.09 L 244.463 203.18 L 249.113 192.14 C 249.433 191.34 249.93 190.733 250.603 190.32 C 251.276 189.9 251.996 189.69 252.763 189.69 C 253.53 189.69 254.25 189.9 254.923 190.32 C 255.596 190.733 256.093 191.34 256.413 192.14 L 261.213 203.23 L 265.673 192.04 ZM 280.269 214.03 C 279.049 214.03 278.032 213.7 277.219 213.04 C 276.406 212.387 275.999 211.403 275.999 210.09 L 275.999 193.58 C 275.999 192.267 276.406 191.283 277.219 190.63 C 278.032 189.97 279.049 189.64 280.269 189.64 C 281.482 189.64 282.499 189.97 283.319 190.63 C 284.132 191.283 284.539 192.267 284.539 193.58 L 284.539 210.09 C 284.539 211.403 284.132 212.387 283.319 213.04 C 282.499 213.7 281.482 214.03 280.269 214.03 Z M 280.269 186.28 C 278.829 186.28 277.686 185.907 276.839 185.16 C 275.986 184.407 275.559 183.407 275.559 182.16 C 275.559 180.907 275.986 179.913 276.839 179.18 C 277.686 178.447 278.829 178.08 280.269 178.08 C 281.676 178.08 282.812 178.447 283.679 179.18 C 284.539 179.913 284.969 180.907 284.969 182.16 C 284.969 183.407 284.546 184.407 283.699 185.16 C 282.852 185.907 281.709 186.28 280.269 186.28 ZM 298.797 214.12 C 296.65 214.12 294.84 213.96 293.367 213.64 C 291.9 213.32 290.607 212.81 289.487 212.11 C 289.034 211.883 288.68 211.5 288.427 210.96 C 288.174 210.413 288.047 209.803 288.047 209.13 C 288.047 208.27 288.277 207.56 288.737 207 C 289.204 206.44 289.787 206.16 290.487 206.16 C 290.967 206.16 291.417 206.213 291.837 206.32 C 292.25 206.433 292.76 206.62 293.367 206.88 C 294.394 207.227 295.3 207.497 296.087 207.69 C 296.867 207.883 297.867 207.98 299.087 207.98 C 299.947 207.98 300.627 207.86 301.127 207.62 C 301.62 207.38 301.867 207.037 301.867 206.59 C 301.867 206.237 301.747 205.963 301.507 205.77 C 301.267 205.577 300.81 205.393 300.137 205.22 C 299.464 205.047 298.327 204.8 296.727 204.48 C 293.88 203.933 291.827 203.107 290.567 202 C 289.3 200.9 288.667 199.34 288.667 197.32 C 288.667 195.853 289.124 194.527 290.037 193.34 C 290.95 192.153 292.207 191.227 293.807 190.56 C 295.407 189.887 297.197 189.55 299.177 189.55 C 300.617 189.55 302.017 189.727 303.377 190.08 C 304.737 190.427 305.947 190.92 307.007 191.56 C 307.994 192.14 308.487 193.07 308.487 194.35 C 308.487 195.243 308.247 195.993 307.767 196.6 C 307.287 197.213 306.697 197.52 305.997 197.52 C 305.164 197.52 304.17 197.247 303.017 196.7 C 302.25 196.347 301.57 196.083 300.977 195.91 C 300.384 195.73 299.687 195.64 298.887 195.64 C 298.087 195.64 297.464 195.76 297.017 196 C 296.57 196.24 296.347 196.587 296.347 197.04 C 296.347 197.547 296.66 197.947 297.287 198.24 C 297.907 198.527 299.147 198.847 301.007 199.2 C 304.107 199.74 306.297 200.563 307.577 201.67 C 308.857 202.77 309.497 204.36 309.497 206.44 C 309.497 208.78 308.53 210.647 306.597 212.04 C 304.657 213.427 302.057 214.12 298.797 214.12 ZM 331.675 214.03 C 330.328 214.03 329.265 213.637 328.485 212.85 C 327.698 212.07 327.305 211.007 327.305 209.66 L 327.305 183.98 C 327.305 182.667 327.658 181.66 328.365 180.96 C 329.065 180.253 330.072 179.9 331.385 179.9 L 343.675 179.9 C 347.422 179.9 350.335 180.853 352.415 182.76 C 354.495 184.66 355.535 187.307 355.535 190.7 C 355.535 194.06 354.485 196.7 352.385 198.62 C 350.292 200.54 347.388 201.5 343.675 201.5 L 336.135 201.5 L 336.135 209.66 C 336.135 211.007 335.735 212.07 334.935 212.85 C 334.135 213.637 333.048 214.03 331.675 214.03 Z M 336.135 194.88 L 342.475 194.88 C 344.108 194.88 345.315 194.543 346.095 193.87 C 346.882 193.197 347.275 192.157 347.275 190.75 C 347.275 187.963 345.675 186.57 342.475 186.57 L 336.135 186.57 L 336.135 194.88 ZM 375.311 189.55 C 378.058 189.55 380.104 190.39 381.451 192.07 C 382.798 193.75 383.471 196.3 383.471 199.72 L 383.471 210.09 C 383.471 211.31 383.084 212.27 382.311 212.97 C 381.544 213.677 380.504 214.03 379.191 214.03 C 377.884 214.03 376.844 213.677 376.071 212.97 C 375.304 212.27 374.921 211.31 374.921 210.09 L 374.921 199.53 C 374.921 197.23 373.931 196.08 371.951 196.08 C 370.671 196.08 369.654 196.487 368.901 197.3 C 368.148 198.113 367.771 199.21 367.771 200.59 L 367.771 210.09 C 367.771 211.31 367.388 212.27 366.621 212.97 C 365.854 213.677 364.814 214.03 363.501 214.03 C 362.188 214.03 361.148 213.677 360.381 212.97 C 359.614 212.27 359.231 211.31 359.231 210.09 L 359.231 183.5 C 359.231 182.38 359.631 181.46 360.431 180.74 C 361.231 180.02 362.284 179.66 363.591 179.66 C 364.844 179.66 365.854 179.997 366.621 180.67 C 367.388 181.343 367.771 182.24 367.771 183.36 L 367.771 192.96 C 368.638 191.84 369.711 190.99 370.991 190.41 C 372.271 189.837 373.711 189.55 375.311 189.55 ZM 400.171 214.12 C 397.578 214.12 395.298 213.617 393.331 212.61 C 391.364 211.603 389.844 210.173 388.771 208.32 C 387.698 206.46 387.161 204.283 387.161 201.79 C 387.161 199.29 387.698 197.12 388.771 195.28 C 389.844 193.44 391.358 192.027 393.311 191.04 C 395.258 190.047 397.544 189.55 400.171 189.55 C 402.798 189.55 405.084 190.047 407.031 191.04 C 408.984 192.027 410.498 193.44 411.571 195.28 C 412.644 197.12 413.181 199.29 413.181 201.79 C 413.181 204.283 412.644 206.46 411.571 208.32 C 410.498 210.173 408.984 211.603 407.031 212.61 C 405.084 213.617 402.798 214.12 400.171 214.12 Z M 400.171 207.74 C 403.211 207.74 404.731 205.757 404.731 201.79 C 404.731 197.823 403.211 195.84 400.171 195.84 C 397.131 195.84 395.611 197.823 395.611 201.79 C 395.611 205.757 397.131 207.74 400.171 207.74 ZM 430.743 207.93 C 432.89 208.057 433.963 209.017 433.963 210.81 C 433.963 211.93 433.53 212.763 432.663 213.31 C 431.803 213.85 430.573 214.073 428.973 213.98 L 427.623 213.88 C 424.743 213.66 422.56 212.79 421.073 211.27 C 419.586 209.75 418.843 207.63 418.843 204.91 L 418.843 196.41 L 417.453 196.41 C 414.893 196.41 413.613 195.353 413.613 193.24 C 413.613 191.16 414.893 190.12 417.453 190.12 L 418.843 190.12 L 418.843 187 C 418.843 185.787 419.226 184.82 419.993 184.1 C 420.76 183.38 421.8 183.02 423.113 183.02 C 424.426 183.02 425.466 183.38 426.233 184.1 C 427 184.82 427.383 185.787 427.383 187 L 427.383 190.12 L 430.023 190.12 C 432.583 190.12 433.863 191.16 433.863 193.24 C 433.863 195.353 432.583 196.41 430.023 196.41 L 427.383 196.41 L 427.383 205.63 C 427.383 206.237 427.57 206.747 427.943 207.16 C 428.31 207.58 428.78 207.807 429.353 207.84 L 430.743 207.93 ZM 448.123 214.12 C 445.53 214.12 443.25 213.617 441.283 212.61 C 439.316 211.603 437.796 210.173 436.723 208.32 C 435.65 206.46 435.113 204.283 435.113 201.79 C 435.113 199.29 435.65 197.12 436.723 195.28 C 437.796 193.44 439.31 192.027 441.263 191.04 C 443.21 190.047 445.496 189.55 448.123 189.55 C 450.75 189.55 453.036 190.047 454.983 191.04 C 456.936 192.027 458.45 193.44 459.523 195.28 C 460.596 197.12 461.133 199.29 461.133 201.79 C 461.133 204.283 460.596 206.46 459.523 208.32 C 458.45 210.173 456.936 211.603 454.983 212.61 C 453.036 213.617 450.75 214.12 448.123 214.12 Z M 448.123 207.74 C 451.163 207.74 452.683 205.757 452.683 201.79 C 452.683 197.823 451.163 195.84 448.123 195.84 C 445.083 195.84 443.563 197.823 443.563 201.79 C 443.563 205.757 445.083 207.74 448.123 207.74 ZM 485.993 189.64 C 487.273 189.64 488.296 190 489.063 190.72 C 489.836 191.44 490.223 192.393 490.223 193.58 L 490.223 210.86 C 490.223 214.767 489.046 217.727 486.693 219.74 C 484.34 221.753 480.89 222.76 476.343 222.76 C 474.583 222.76 472.92 222.6 471.353 222.28 C 469.786 221.96 468.46 221.497 467.373 220.89 C 466.793 220.57 466.336 220.153 466.003 219.64 C 465.67 219.133 465.503 218.56 465.503 217.92 C 465.503 216.987 465.733 216.233 466.193 215.66 C 466.66 215.087 467.26 214.8 467.993 214.8 C 468.573 214.8 469.613 215.04 471.113 215.52 C 472.106 215.84 472.986 216.087 473.753 216.26 C 474.52 216.433 475.303 216.52 476.103 216.52 C 478.056 216.52 479.49 216.113 480.403 215.3 C 481.316 214.487 481.773 213.2 481.773 211.44 L 481.773 209.61 C 481.066 210.67 480.056 211.51 478.743 212.13 C 477.436 212.757 476.013 213.07 474.473 213.07 C 472.426 213.07 470.603 212.59 469.003 211.63 C 467.403 210.67 466.156 209.3 465.263 207.52 C 464.363 205.747 463.913 203.693 463.913 201.36 C 463.913 199.02 464.363 196.953 465.263 195.16 C 466.156 193.373 467.403 191.99 469.003 191.01 C 470.603 190.037 472.426 189.55 474.473 189.55 C 476.04 189.55 477.48 189.87 478.793 190.51 C 480.106 191.15 481.116 192.03 481.823 193.15 C 481.883 192.063 482.29 191.207 483.043 190.58 C 483.796 189.953 484.78 189.64 485.993 189.64 Z M 477.063 206.68 C 478.57 206.68 479.74 206.217 480.573 205.29 C 481.406 204.363 481.823 203.053 481.823 201.36 C 481.823 199.66 481.406 198.33 480.573 197.37 C 479.74 196.41 478.57 195.93 477.063 195.93 C 475.596 195.93 474.446 196.403 473.613 197.35 C 472.78 198.29 472.363 199.627 472.363 201.36 C 472.363 203.02 472.786 204.323 473.633 205.27 C 474.48 206.21 475.623 206.68 477.063 206.68 ZM 510.185 189.64 C 511.272 189.547 512.135 189.797 512.775 190.39 C 513.415 190.983 513.735 191.853 513.735 193 C 513.735 194.28 513.442 195.21 512.855 195.79 C 512.262 196.363 511.195 196.73 509.655 196.89 L 508.215 197.04 C 506.615 197.227 505.472 197.73 504.785 198.55 C 504.098 199.363 503.755 200.473 503.755 201.88 L 503.755 210.09 C 503.755 211.403 503.348 212.387 502.535 213.04 C 501.715 213.7 500.698 214.03 499.485 214.03 C 498.265 214.03 497.248 213.7 496.435 213.04 C 495.622 212.387 495.215 211.403 495.215 210.09 L 495.215 193.48 C 495.215 192.267 495.622 191.323 496.435 190.65 C 497.248 189.977 498.232 189.64 499.385 189.64 C 500.572 189.64 501.525 189.96 502.245 190.6 C 502.965 191.24 503.325 192.137 503.325 193.29 L 503.325 194.2 C 503.838 192.793 504.678 191.707 505.845 190.94 C 507.012 190.173 508.235 189.757 509.515 189.69 L 510.185 189.64 ZM 526.365 189.55 C 530.012 189.55 532.708 190.42 534.455 192.16 C 536.195 193.907 537.065 196.557 537.065 200.11 L 537.065 210.14 C 537.065 211.353 536.705 212.307 535.985 213 C 535.265 213.687 534.265 214.03 532.985 214.03 C 531.865 214.03 530.945 213.71 530.225 213.07 C 529.505 212.43 529.115 211.567 529.055 210.48 C 528.602 211.627 527.848 212.52 526.795 213.16 C 525.742 213.8 524.478 214.12 523.005 214.12 C 521.372 214.12 519.898 213.793 518.585 213.14 C 517.272 212.487 516.242 211.573 515.495 210.4 C 514.742 209.233 514.365 207.913 514.365 206.44 C 514.365 204.747 514.805 203.397 515.685 202.39 C 516.565 201.383 517.965 200.653 519.885 200.2 C 521.805 199.753 524.395 199.53 527.655 199.53 L 528.955 199.53 L 528.955 198.96 C 528.955 197.84 528.698 197.03 528.185 196.53 C 527.672 196.037 526.808 195.79 525.595 195.79 C 524.282 195.79 522.362 196.237 519.835 197.13 C 519.102 197.39 518.478 197.52 517.965 197.52 C 517.165 197.52 516.525 197.23 516.045 196.65 C 515.565 196.077 515.325 195.327 515.325 194.4 C 515.325 193.693 515.468 193.117 515.755 192.67 C 516.042 192.223 516.505 191.823 517.145 191.47 C 518.265 190.89 519.675 190.427 521.375 190.08 C 523.068 189.727 524.732 189.55 526.365 189.55 Z M 525.015 208.41 C 526.168 208.41 527.115 208.003 527.855 207.19 C 528.588 206.37 528.955 205.32 528.955 204.04 L 528.955 203.47 L 528.185 203.47 C 526.138 203.47 524.682 203.653 523.815 204.02 C 522.955 204.387 522.525 205.003 522.525 205.87 C 522.525 206.603 522.755 207.21 523.215 207.69 C 523.682 208.17 524.282 208.41 525.015 208.41 ZM 557.511 189.55 C 559.531 189.55 561.331 190.07 562.911 191.11 C 564.498 192.15 565.731 193.613 566.611 195.5 C 567.491 197.387 567.931 199.547 567.931 201.98 C 567.931 204.413 567.491 206.55 566.611 208.39 C 565.731 210.23 564.508 211.647 562.941 212.64 C 561.374 213.627 559.564 214.12 557.511 214.12 C 556.011 214.12 554.628 213.817 553.361 213.21 C 552.101 212.603 551.118 211.787 550.411 210.76 L 550.411 218.92 C 550.411 220.04 550.028 220.937 549.261 221.61 C 548.494 222.283 547.484 222.62 546.231 222.62 C 544.924 222.62 543.871 222.26 543.071 221.54 C 542.271 220.82 541.871 219.9 541.871 218.78 L 541.871 193.58 C 541.871 192.393 542.244 191.44 542.991 190.72 C 543.744 190 544.761 189.64 546.041 189.64 C 547.261 189.64 548.244 189.96 548.991 190.6 C 549.744 191.24 550.171 192.09 550.271 193.15 C 550.938 192.03 551.921 191.15 553.221 190.51 C 554.514 189.87 555.944 189.55 557.511 189.55 Z M 554.921 207.74 C 556.394 207.74 557.524 207.243 558.311 206.25 C 559.091 205.257 559.481 203.833 559.481 201.98 C 559.481 200.027 559.081 198.53 558.281 197.49 C 557.481 196.45 556.344 195.93 554.871 195.93 C 553.404 195.93 552.271 196.443 551.471 197.47 C 550.671 198.49 550.271 199.96 550.271 201.88 C 550.271 203.773 550.671 205.223 551.471 206.23 C 552.271 207.237 553.421 207.74 554.921 207.74 ZM 587.951 189.55 C 590.698 189.55 592.744 190.39 594.091 192.07 C 595.438 193.75 596.111 196.3 596.111 199.72 L 596.111 210.09 C 596.111 211.31 595.724 212.27 594.951 212.97 C 594.184 213.677 593.144 214.03 591.831 214.03 C 590.524 214.03 589.484 213.677 588.711 212.97 C 587.944 212.27 587.561 211.31 587.561 210.09 L 587.561 199.53 C 587.561 197.23 586.571 196.08 584.591 196.08 C 583.311 196.08 582.294 196.487 581.541 197.3 C 580.788 198.113 580.411 199.21 580.411 200.59 L 580.411 210.09 C 580.411 211.31 580.028 212.27 579.261 212.97 C 578.494 213.677 577.454 214.03 576.141 214.03 C 574.828 214.03 573.788 213.677 573.021 212.97 C 572.254 212.27 571.871 211.31 571.871 210.09 L 571.871 183.5 C 571.871 182.38 572.271 181.46 573.071 180.74 C 573.871 180.02 574.924 179.66 576.231 179.66 C 577.484 179.66 578.494 179.997 579.261 180.67 C 580.028 181.343 580.411 182.24 580.411 183.36 L 580.411 192.96 C 581.278 191.84 582.351 190.99 583.631 190.41 C 584.911 189.837 586.351 189.55 587.951 189.55 ZM 616.701 192.04 C 617.054 191.24 617.534 190.65 618.141 190.27 C 618.748 189.883 619.418 189.69 620.151 189.69 C 621.211 189.69 622.158 190.043 622.991 190.75 C 623.818 191.45 624.231 192.297 624.231 193.29 C 624.231 193.837 624.104 194.367 623.851 194.88 L 611.131 220.36 C 610.744 221.16 610.241 221.753 609.621 222.14 C 608.994 222.527 608.314 222.72 607.581 222.72 C 606.521 222.72 605.584 222.373 604.771 221.68 C 603.958 220.993 603.551 220.153 603.551 219.16 C 603.551 218.62 603.694 218.06 603.981 217.48 L 607.101 211.2 L 598.941 194.88 C 598.681 194.3 598.551 193.787 598.551 193.34 C 598.551 192.313 599.001 191.44 599.901 190.72 C 600.794 190 601.801 189.64 602.921 189.64 C 603.688 189.64 604.401 189.84 605.061 190.24 C 605.714 190.64 606.218 191.24 606.571 192.04 L 611.661 203.08 L 616.701 192.04 Z" transform="matrix(1, 0, 0, 1, 0, 1.4210854715202004e-14)" style="fill: rgb(51, 51, 51); white-space: pre;"/>
</svg>